<?xml version="1.0" encoding="UTF-8" standalone="no"?>
<!-- Created with Inkscape (http://www.inkscape.org/) -->

<svg
   xmlns:dc="http://purl.org/dc/elements/1.1/"
   xmlns:cc="http://creativecommons.org/ns#"
   xmlns:rdf="http://www.w3.org/1999/02/22-rdf-syntax-ns#"
   xmlns:svg="http://www.w3.org/2000/svg"
   xmlns="http://www.w3.org/2000/svg"
   xmlns:sodipodi="http://sodipodi.sourceforge.net/DTD/sodipodi-0.dtd"
   xmlns:inkscape="http://www.inkscape.org/namespaces/inkscape"
   id="svg2"
   version="1.1"
   inkscape:version="0.91 r"
   xml:space="preserve"
   width="198.51927"
   height="56.478001"
   viewBox="0 0 198.51927 56.478"
   sodipodi:docname="lexum-new.svg"><metadata
     id="metadata8"><rdf:RDF><cc:Work
         rdf:about=""><dc:format>image/svg+xml</dc:format><dc:type
           rdf:resource="http://purl.org/dc/dcmitype/StillImage" /><dc:title></dc:title></cc:Work></rdf:RDF></metadata><defs
     id="defs6" /><sodipodi:namedview
     pagecolor="#ffffff"
     bordercolor="#666666"
     borderopacity="1"
     objecttolerance="10"
     gridtolerance="10"
     guidetolerance="10"
     inkscape:pageopacity="0"
     inkscape:pageshadow="2"
     inkscape:window-width="998"
     inkscape:window-height="573"
     id="namedview4"
     showgrid="false"
     fit-margin-top="0"
     fit-margin-left="0"
     fit-margin-right="0"
     fit-margin-bottom="0"
     inkscape:zoom="1.1933086"
     inkscape:cx="99.17925"
     inkscape:cy="20.309874"
     inkscape:window-x="2325"
     inkscape:window-y="358"
     inkscape:window-maximized="0"
     inkscape:current-layer="g10" /><g
     id="g10"
     inkscape:groupmode="layer"
     inkscape:label="ink_ext_XXXXXX"
     transform="matrix(1.25,0,0,-1.25,-35.32075,96.430625)"><g
       id="g12"
       transform="scale(0.1,0.1)"><path
         d="m 547.957,517.512 130.945,0 c -0.625,32.582 -17.535,60.148 -60.769,60.148 -40.102,0 -63.278,-26.937 -70.176,-60.148 z m 164.777,-57.008 -168.531,0 c 3.129,-45.742 35.082,-74.563 80.817,-74.563 21.937,0 41.976,7.52 60.152,21.934 18.797,15.035 35.086,15.656 48.867,1.879 13.156,-12.531 12.531,-34.461 -4.383,-50.121 -28.191,-25.695 -62.66,-38.223 -104.636,-38.223 -45.735,0 -83.321,14.41 -111.524,43.86 -28.183,29.445 -42.601,67.664 -42.601,114.656 0,45.73 13.789,84.582 40.726,115.906 26.942,31.324 63.277,46.988 107.762,46.988 46.988,0 84.586,-20.047 104.633,-48.246 20.047,-28.191 29.445,-59.515 29.445,-89.59 0,-25.687 -15.66,-44.48 -40.727,-44.48"
         style="fill:#40baaa;fill-opacity:1;fill-rule:nonzero;stroke:none"
         id="path14"
         inkscape:connector-curvature="0" /><path
         d="m 955.844,486.191 77.696,-104.632 c 13.15,-20.047 8.77,-40.098 -8.15,-50.75 -18.16,-10.653 -34.456,-6.266 -49.495,14.41 l -63.278,86.461 -62.031,-86.461 c -15.035,-20.676 -31.324,-25.688 -49.488,-14.41 -16.922,10.652 -21.313,30.703 -8.145,50.75 l 77.059,104.632 -70.801,95.86 c -13.152,20.043 -8.766,40.094 8.148,50.746 18.168,11.277 34.457,6.266 49.493,-14.41 l 55.765,-77.688 56.391,77.688 c 13.152,19.422 33.822,24.433 49.492,14.41 16.91,-10.652 21.3,-30.703 8.15,-50.746 l -70.806,-95.86"
         style="fill:#40baaa;fill-opacity:1;fill-rule:nonzero;stroke:none"
         id="path16"
         inkscape:connector-curvature="0" /><path
         d="m 1345.55,363.383 c 0,-24.43 -15.04,-38.215 -35.08,-38.215 -17.55,0 -31.96,10.652 -35.09,28.82 -19.42,-21.925 -46.36,-32.578 -79.57,-32.578 -69.55,0 -114.66,50.125 -114.66,135.332 l 0,142.848 c -3.13,51.379 74.56,51.379 71.43,0 l 0,-147.86 c 0,-40.726 20.68,-66.414 57.64,-66.414 40.1,0 63.91,31.329 63.91,77.067 l 0,137.207 c -3.14,51.379 74.56,51.379 71.42,0 l 0,-236.207"
         style="fill:#40baaa;fill-opacity:1;fill-rule:nonzero;stroke:none"
         id="path18"
         inkscape:connector-curvature="0" /><path
         d="m 1416.98,600.219 c 0,24.433 15.04,38.219 35.09,38.219 18.16,0 32.58,-11.282 35.08,-31.333 20.05,23.813 46.37,35.715 79.57,35.715 38.22,0 66.41,-13.16 85.84,-40.093 23.8,26.933 55.76,40.093 95.86,40.093 80.82,0 122.17,-47.613 122.17,-135.957 l 0,-142.847 c 3.76,-51.379 -75.19,-51.379 -71.43,0 l 0,147.863 c 0,40.723 -20.67,66.406 -56.38,66.406 -40.73,0 -63.91,-29.445 -63.91,-75.18 l 0,-139.089 c 3.76,-52.004 -73.3,-50.75 -70.8,0 l 0,147.863 c 0,40.723 -20.67,66.406 -56.38,66.406 -40.73,0 -63.28,-29.445 -63.28,-75.18 l 0,-139.089 c 3.76,-51.379 -75.19,-51.379 -71.43,0 l 0,236.203"
         style="fill:#40baaa;fill-opacity:1;fill-rule:nonzero;stroke:none"
         id="path20"
         inkscape:connector-curvature="0" /><path
         d="m 423.434,319.621 -16.633,0 c -80.696,0 -124.235,71.102 -124.235,138.004 l 0,276.648 c 0,20.532 16.649,37.172 37.176,37.172 20.535,0 37.172,-16.64 37.172,-37.172 l 0,-276.648 c 0,-17.707 8.25,-69.008 49.172,-69.008 l 16.633,0 c 20.523,0 37.886,-13.644 37.886,-34.176 0,-20.527 -16.64,-34.82 -37.171,-34.82"
         style="fill:#40baaa;fill-opacity:1;fill-rule:nonzero;stroke:none"
         id="path22"
         inkscape:connector-curvature="0" /></g></g></svg>