<?xml version="1.0" encoding="UTF-8" standalone="no"?>
<!-- Created with Inkscape (http://www.inkscape.org/) -->

  <!-- width="344.0679"
   height="106.17918" -->
<svg
   xmlns:dc="http://purl.org/dc/elements/1.1/"
   xmlns:cc="http://creativecommons.org/ns#"
   xmlns:rdf="http://www.w3.org/1999/02/22-rdf-syntax-ns#"
   xmlns:svg="http://www.w3.org/2000/svg"
   xmlns="http://www.w3.org/2000/svg"
   xmlns:sodipodi="http://sodipodi.sourceforge.net/DTD/sodipodi-0.dtd"
   xmlns:inkscape="http://www.inkscape.org/namespaces/inkscape"
   id="svg3485"
   version="1.1"
   viewBox="0 0 344 106"
   preserveAspectRatio="xMinYMin meet"
   inkscape:version="0.48.4 r9939"
   sodipodi:docname="New document 12">
  <defs
     id="defs3487" />
  <sodipodi:namedview
     id="base"
     pagecolor="#ffffff"
     bordercolor="#666666"
     borderopacity="1.0"
     inkscape:pageopacity="0.0"
     inkscape:pageshadow="2"
     inkscape:zoom="1.0994985"
     inkscape:cx="172.03395"
     inkscape:cy="53.089584"
     inkscape:document-units="px"
     inkscape:current-layer="g3846"
     showgrid="false"
     fit-margin-top="0"
     fit-margin-left="0"
     fit-margin-right="0"
     fit-margin-bottom="0"
     inkscape:window-width="1234"
     inkscape:window-height="930"
     inkscape:window-x="1"
     inkscape:window-y="49"
     inkscape:window-maximized="0" />
  <metadata
     id="metadata3490">
    <rdf:RDF>
      <cc:Work
         rdf:about="">
        <dc:format>image/svg+xml</dc:format>
        <dc:type
           rdf:resource="http://purl.org/dc/dcmitype/StillImage" />
        <dc:title></dc:title>
      </cc:Work>
    </rdf:RDF>
  </metadata>
  <g
     inkscape:label="Layer 1"
     inkscape:groupmode="layer"
     id="layer1"
     transform="translate(-202.96605,-479.27259)">
    <g
       style="display:inline"
       transform="matrix(0.8268689,0,0,0.8268689,73.174405,392.95191)"
       id="g3846"
       inkscape:export-filename="/home/girouxb/tmp/canlii.png"
       inkscape:export-xdpi="44.981766"
       inkscape:export-ydpi="44.981766">
      <g
         style="font-size:144px;font-style:normal;font-variant:normal;font-weight:normal;font-stretch:normal;text-align:start;line-height:125%;writing-mode:lr-tb;text-anchor:start;fill:#027abb;fill-opacity:1;stroke:none;font-family:Century Gothic"
         id="text3848">
        <path
           d="m 258.077,145.96985 -8.15625,6.25781 c -4.5001,-5.85929 -9.91416,-10.28897 -16.24219,-13.28906 -6.28133,-3.04678 -13.19539,-4.57022 -20.74219,-4.57031 -8.25005,9e-5 -15.89067,1.99228 -22.92187,5.97656 -7.03129,3.93758 -12.49222,9.25789 -16.38282,15.96094 -3.84377,6.65631 -5.76564,14.15631 -5.76562,22.5 -2e-5,12.60941 4.31248,23.13284 12.9375,31.57031 8.67183,8.43751 19.5937,12.65626 32.76562,12.65625 14.4843,1e-5 26.60147,-5.67186 36.35157,-17.01563 l 8.15625,6.1875 c -5.15636,6.56252 -11.60166,11.64845 -19.33594,15.25782 -7.68758,3.5625 -16.28914,5.34374 -25.80469,5.34375 -18.09379,-1e-5 -32.36722,-6.02344 -42.82031,-18.07032 -8.76564,-10.17185 -13.14845,-22.45308 -13.14844,-36.84375 -1e-5,-15.14055 5.29686,-27.8671 15.89063,-38.17968 10.64059,-10.35928 23.95307,-15.53896 39.9375,-15.53907 9.65617,1.1e-4 18.37491,1.92198 26.15625,5.76563 7.78115,3.79697 14.15614,9.14071 19.125,16.03125"
           style=""
           id="path3507" />
        <path
           d="m 353.35043,153.70422 0,76.5 -9.70312,0 0,-13.14843 c -4.12508,5.01563 -8.7657,8.78906 -13.92188,11.32031 -5.10943,2.53125 -10.71099,3.79687 -16.80468,3.79687 -10.82817,0 -20.08597,-3.91406 -27.77344,-11.74218 -7.64064,-7.87499 -11.46095,-17.43748 -11.46094,-28.6875 -1e-5,-11.01558 3.86718,-20.43744 11.60156,-28.26563 7.73435,-7.82805 17.03903,-11.74211 27.91407,-11.74219 6.28119,8e-5 11.95306,1.33602 17.01562,4.00782 5.10931,2.67194 9.58586,6.67975 13.42969,12.02343 l 0,-14.0625 9.70312,0 m -39.375,7.52344 c -5.48441,7e-5 -10.54691,1.35944 -15.1875,4.07813 -4.64065,2.67193 -8.34377,6.44537 -11.10937,11.32031 -2.71877,4.87505 -4.07814,10.03129 -4.07813,15.46875 -1e-5,5.39066 1.3828,10.5469 4.14844,15.46875 2.7656,4.92189 6.46872,8.76564 11.10938,11.53125 4.68746,2.71876 9.70308,4.07813 15.04687,4.07812 5.39057,1e-5 10.49994,-1.35936 15.32813,-4.07812 4.82805,-2.71874 8.53117,-6.39842 11.10937,-11.03906 2.62492,-4.6406 3.93742,-9.86716 3.9375,-15.67969 -8e-5,-8.85933 -2.92976,-16.26557 -8.78906,-22.21875 -5.81257,-5.95306 -12.98443,-8.92962 -21.51563,-8.92969"
           style=""
           id="path3509" />
        <path
           d="m 375.56918,153.70422 9.84375,0 0,13.71094 c 3.93748,-5.24993 8.29685,-9.16399 13.07813,-11.74219 4.78121,-2.62492 9.98433,-3.93742 15.60937,-3.9375 5.7187,8e-5 10.78119,1.45321 15.1875,4.35938 4.45306,2.90632 7.73431,6.82038 9.84375,11.74219 2.1093,4.92193 3.16399,12.58598 3.16407,22.99218 l 0,39.375 -9.77344,0 0,-36.49218 c -7e-5,-8.81246 -0.37507,-14.69527 -1.125,-17.64844 -1.17194,-5.06244 -3.37507,-8.85931 -6.60938,-11.39063 -3.23443,-2.57805 -7.45317,-3.86711 -12.65625,-3.86718 -5.95316,7e-5 -11.29691,1.96881 -16.03125,5.90625 -4.68752,3.93756 -7.78127,8.81255 -9.28125,14.625 -0.93752,3.79692 -1.40627,10.73441 -1.40625,20.8125 l 0,28.05468 -9.84375,0 0,-76.5"
           style=""
           id="path3511" />
        <path
           d="m 464.93637,126.77454 10.40625,0 0,93.44531 39.72656,0 0,9.98437 -50.13281,0 0,-103.42968"
           style=""
           id="path3513" />
        <path
           d="m 530.11606,126.77454 10.33594,0 0,103.42968 -10.33594,0 0,-103.42968"
           style=""
           id="path3515" />
        <path
           d="m 562.74106,126.77454 10.33594,0 0,103.42968 -10.33594,0 0,-103.42968"
           style=""
           id="path3517" />
      </g>
      <path
         inkscape:connector-curvature="0"
         style="fill:#bf0d0b;fill-opacity:1;fill-rule:evenodd;stroke:none"
         d="m 368.7683,107.68762 5.55086,3.8018 8.76245,-7.09478 0.98885,10.50104 6.49776,0.93518 -7.79148,12.43803 9.53567,-4.23249 0.0185,5.72952 8.21357,0.35545 -5.51634,6.89331 3.26153,4.57315 -18.32154,4.06986 -0.16754,7.25802 -10.52633,-6.84151 -3.96812,13.19086 -6.69432,-3.03415 6.26487,-11.6704 -12.99495,-2.44085 4.56821,-4.7894 -10.74445,-15.24419 5.9168,-1.16503 0.73619,-9.16848 5.55395,5.32844 4.76104,-4.59719 4.04459,10.8713 2.05026,-15.66749 z"
         id="path3852"
         sodipodi:nodetypes="cccccccccccccccccccccccccc" />
    </g>
  </g>
</svg>
